<mxfile host="app.diagrams.net" agent="Mozilla/5.0 (Macintosh; Intel Mac OS X 10_15_7) AppleWebKit/537.36 (KHTML, like Gecko) Chrome/136.0.0.0 Safari/537.36" version="27.0.6">
  <diagram name="Pagina-1" id="tbLhMC2tCZrZLxijzygG">
    <mxGraphModel dx="1051" dy="716" grid="1" gridSize="10" guides="1" tooltips="1" connect="1" arrows="1" fold="1" page="1" pageScale="1" pageWidth="827" pageHeight="1169" math="0" shadow="0">
      <root>
        <mxCell id="0" />
        <mxCell id="1" parent="0" />
        <mxCell id="UD3QibeRNPxxmpjYGRvA-1" style="edgeStyle=orthogonalEdgeStyle;rounded=0;orthogonalLoop=1;jettySize=auto;html=1;exitX=0.5;exitY=1;exitDx=0;exitDy=0;entryX=0.5;entryY=0;entryDx=0;entryDy=0;endArrow=none;startFill=0;" edge="1" parent="1" source="UD3QibeRNPxxmpjYGRvA-6" target="UD3QibeRNPxxmpjYGRvA-25">
          <mxGeometry relative="1" as="geometry" />
        </mxCell>
        <mxCell id="UD3QibeRNPxxmpjYGRvA-2" style="edgeStyle=orthogonalEdgeStyle;rounded=0;orthogonalLoop=1;jettySize=auto;html=1;exitX=0.5;exitY=0;exitDx=0;exitDy=0;entryX=0.5;entryY=1;entryDx=0;entryDy=0;endArrow=none;startFill=0;curved=1;" edge="1" parent="1" source="UD3QibeRNPxxmpjYGRvA-6" target="UD3QibeRNPxxmpjYGRvA-27">
          <mxGeometry relative="1" as="geometry">
            <mxPoint x="633" y="732" as="targetPoint" />
          </mxGeometry>
        </mxCell>
        <mxCell id="UD3QibeRNPxxmpjYGRvA-3" style="edgeStyle=orthogonalEdgeStyle;rounded=0;orthogonalLoop=1;jettySize=auto;html=1;exitX=0.5;exitY=0;exitDx=0;exitDy=0;entryX=0.5;entryY=1;entryDx=0;entryDy=0;curved=1;endArrow=none;startFill=0;" edge="1" parent="1" source="UD3QibeRNPxxmpjYGRvA-6" target="UD3QibeRNPxxmpjYGRvA-8">
          <mxGeometry relative="1" as="geometry" />
        </mxCell>
        <mxCell id="UD3QibeRNPxxmpjYGRvA-4" style="edgeStyle=orthogonalEdgeStyle;rounded=0;orthogonalLoop=1;jettySize=auto;html=1;exitX=1;exitY=0;exitDx=0;exitDy=0;entryX=0;entryY=0.5;entryDx=0;entryDy=0;curved=1;endArrow=none;startFill=0;" edge="1" parent="1" source="UD3QibeRNPxxmpjYGRvA-6" target="UD3QibeRNPxxmpjYGRvA-109">
          <mxGeometry relative="1" as="geometry">
            <Array as="points">
              <mxPoint x="488" y="790" />
              <mxPoint x="793" y="790" />
              <mxPoint x="793" y="644" />
              <mxPoint x="893" y="644" />
            </Array>
          </mxGeometry>
        </mxCell>
        <mxCell id="UD3QibeRNPxxmpjYGRvA-5" style="edgeStyle=orthogonalEdgeStyle;rounded=0;orthogonalLoop=1;jettySize=auto;html=1;exitX=1;exitY=0.5;exitDx=0;exitDy=0;entryX=0;entryY=0.5;entryDx=0;entryDy=0;endArrow=none;startFill=0;" edge="1" parent="1" source="UD3QibeRNPxxmpjYGRvA-6" target="UD3QibeRNPxxmpjYGRvA-166">
          <mxGeometry relative="1" as="geometry" />
        </mxCell>
        <mxCell id="UD3QibeRNPxxmpjYGRvA-6" value="" style="ellipse;whiteSpace=wrap;html=1;aspect=fixed;fillColor=#FFFFFF;" vertex="1" parent="1">
          <mxGeometry x="476" y="866" width="14" height="14" as="geometry" />
        </mxCell>
        <mxCell id="UD3QibeRNPxxmpjYGRvA-7" value="Id_Encounter" style="text;html=1;align=center;verticalAlign=middle;resizable=0;points=[];autosize=1;strokeColor=none;fillColor=none;" vertex="1" parent="1">
          <mxGeometry x="497" y="842" width="90" height="30" as="geometry" />
        </mxCell>
        <mxCell id="UD3QibeRNPxxmpjYGRvA-8" value="" style="ellipse;whiteSpace=wrap;html=1;aspect=fixed;fillColor=#FFFFFF;" vertex="1" parent="1">
          <mxGeometry x="386" y="761" width="14" height="14" as="geometry" />
        </mxCell>
        <mxCell id="UD3QibeRNPxxmpjYGRvA-9" style="edgeStyle=orthogonalEdgeStyle;rounded=0;orthogonalLoop=1;jettySize=auto;html=1;exitX=1;exitY=0.5;exitDx=0;exitDy=0;entryX=0;entryY=0.5;entryDx=0;entryDy=0;endArrow=classic;startFill=0;endFill=1;" edge="1" parent="1" source="UD3QibeRNPxxmpjYGRvA-16" target="UD3QibeRNPxxmpjYGRvA-40">
          <mxGeometry relative="1" as="geometry" />
        </mxCell>
        <mxCell id="UD3QibeRNPxxmpjYGRvA-10" style="edgeStyle=orthogonalEdgeStyle;rounded=0;orthogonalLoop=1;jettySize=auto;html=1;exitX=0.5;exitY=1;exitDx=0;exitDy=0;entryX=0.5;entryY=0;entryDx=0;entryDy=0;curved=1;endArrow=none;startFill=0;" edge="1" parent="1" source="UD3QibeRNPxxmpjYGRvA-16" target="UD3QibeRNPxxmpjYGRvA-43">
          <mxGeometry relative="1" as="geometry" />
        </mxCell>
        <mxCell id="UD3QibeRNPxxmpjYGRvA-11" style="edgeStyle=orthogonalEdgeStyle;rounded=0;orthogonalLoop=1;jettySize=auto;html=1;exitX=0;exitY=0;exitDx=0;exitDy=0;entryX=1;entryY=1;entryDx=0;entryDy=0;strokeColor=default;curved=1;endArrow=none;startFill=0;" edge="1" parent="1" source="UD3QibeRNPxxmpjYGRvA-16" target="UD3QibeRNPxxmpjYGRvA-41">
          <mxGeometry relative="1" as="geometry" />
        </mxCell>
        <mxCell id="UD3QibeRNPxxmpjYGRvA-12" style="edgeStyle=orthogonalEdgeStyle;rounded=0;orthogonalLoop=1;jettySize=auto;html=1;exitX=0.5;exitY=0;exitDx=0;exitDy=0;entryX=0.5;entryY=1;entryDx=0;entryDy=0;curved=1;endArrow=none;startFill=0;" edge="1" parent="1" source="UD3QibeRNPxxmpjYGRvA-16" target="UD3QibeRNPxxmpjYGRvA-51">
          <mxGeometry relative="1" as="geometry" />
        </mxCell>
        <mxCell id="UD3QibeRNPxxmpjYGRvA-13" style="edgeStyle=orthogonalEdgeStyle;rounded=0;orthogonalLoop=1;jettySize=auto;html=1;exitX=1;exitY=0;exitDx=0;exitDy=0;entryX=0.5;entryY=1;entryDx=0;entryDy=0;curved=1;endArrow=none;startFill=0;" edge="1" parent="1" source="UD3QibeRNPxxmpjYGRvA-16" target="UD3QibeRNPxxmpjYGRvA-17">
          <mxGeometry relative="1" as="geometry" />
        </mxCell>
        <mxCell id="UD3QibeRNPxxmpjYGRvA-14" style="edgeStyle=orthogonalEdgeStyle;rounded=0;orthogonalLoop=1;jettySize=auto;html=1;exitX=0.933;exitY=0.302;exitDx=0;exitDy=0;entryX=0.5;entryY=1;entryDx=0;entryDy=0;curved=1;endArrow=none;startFill=0;exitPerimeter=0;" edge="1" parent="1" source="UD3QibeRNPxxmpjYGRvA-16" target="UD3QibeRNPxxmpjYGRvA-54">
          <mxGeometry relative="1" as="geometry" />
        </mxCell>
        <mxCell id="UD3QibeRNPxxmpjYGRvA-15" style="edgeStyle=orthogonalEdgeStyle;rounded=0;orthogonalLoop=1;jettySize=auto;html=1;exitX=1.014;exitY=0.588;exitDx=0;exitDy=0;entryX=0;entryY=0.5;entryDx=0;entryDy=0;curved=1;endArrow=none;startFill=0;exitPerimeter=0;" edge="1" parent="1" source="UD3QibeRNPxxmpjYGRvA-16" target="UD3QibeRNPxxmpjYGRvA-55">
          <mxGeometry relative="1" as="geometry" />
        </mxCell>
        <mxCell id="UD3QibeRNPxxmpjYGRvA-16" value="" style="ellipse;whiteSpace=wrap;html=1;aspect=fixed;fillColor=#FFFFFF;" vertex="1" parent="1">
          <mxGeometry x="826" y="866" width="14" height="14" as="geometry" />
        </mxCell>
        <mxCell id="UD3QibeRNPxxmpjYGRvA-17" value="" style="ellipse;whiteSpace=wrap;html=1;aspect=fixed;fillColor=#FFFFFF;" vertex="1" parent="1">
          <mxGeometry x="863" y="830" width="14" height="14" as="geometry" />
        </mxCell>
        <mxCell id="UD3QibeRNPxxmpjYGRvA-18" style="edgeStyle=orthogonalEdgeStyle;rounded=0;orthogonalLoop=1;jettySize=auto;html=1;exitX=0;exitY=0;exitDx=0;exitDy=0;entryX=0.5;entryY=0;entryDx=0;entryDy=0;curved=1;endArrow=none;startFill=0;" edge="1" parent="1" source="UD3QibeRNPxxmpjYGRvA-25" target="UD3QibeRNPxxmpjYGRvA-78">
          <mxGeometry relative="1" as="geometry" />
        </mxCell>
        <mxCell id="UD3QibeRNPxxmpjYGRvA-19" style="edgeStyle=orthogonalEdgeStyle;rounded=0;orthogonalLoop=1;jettySize=auto;html=1;exitX=0;exitY=0.5;exitDx=0;exitDy=0;entryX=0.5;entryY=0;entryDx=0;entryDy=0;curved=1;endArrow=none;startFill=0;" edge="1" parent="1" source="UD3QibeRNPxxmpjYGRvA-25" target="UD3QibeRNPxxmpjYGRvA-76">
          <mxGeometry relative="1" as="geometry" />
        </mxCell>
        <mxCell id="UD3QibeRNPxxmpjYGRvA-20" style="edgeStyle=orthogonalEdgeStyle;rounded=0;orthogonalLoop=1;jettySize=auto;html=1;exitX=0;exitY=1;exitDx=0;exitDy=0;entryX=0.5;entryY=0;entryDx=0;entryDy=0;curved=1;endArrow=none;startFill=0;" edge="1" parent="1" source="UD3QibeRNPxxmpjYGRvA-25" target="UD3QibeRNPxxmpjYGRvA-77">
          <mxGeometry relative="1" as="geometry" />
        </mxCell>
        <mxCell id="UD3QibeRNPxxmpjYGRvA-21" style="edgeStyle=orthogonalEdgeStyle;rounded=0;orthogonalLoop=1;jettySize=auto;html=1;exitX=1;exitY=1;exitDx=0;exitDy=0;curved=1;endArrow=none;startFill=0;" edge="1" parent="1" source="UD3QibeRNPxxmpjYGRvA-25" target="UD3QibeRNPxxmpjYGRvA-84">
          <mxGeometry relative="1" as="geometry" />
        </mxCell>
        <mxCell id="UD3QibeRNPxxmpjYGRvA-22" style="edgeStyle=orthogonalEdgeStyle;rounded=0;orthogonalLoop=1;jettySize=auto;html=1;exitX=0.971;exitY=0.342;exitDx=0;exitDy=0;entryX=0;entryY=0.5;entryDx=0;entryDy=0;curved=1;exitPerimeter=0;endArrow=none;startFill=0;" edge="1" parent="1" source="UD3QibeRNPxxmpjYGRvA-25" target="UD3QibeRNPxxmpjYGRvA-91">
          <mxGeometry relative="1" as="geometry" />
        </mxCell>
        <mxCell id="UD3QibeRNPxxmpjYGRvA-23" style="edgeStyle=orthogonalEdgeStyle;rounded=0;orthogonalLoop=1;jettySize=auto;html=1;exitX=1;exitY=0;exitDx=0;exitDy=0;entryX=0;entryY=1;entryDx=0;entryDy=0;curved=1;" edge="1" parent="1" source="UD3QibeRNPxxmpjYGRvA-25" target="UD3QibeRNPxxmpjYGRvA-40">
          <mxGeometry relative="1" as="geometry">
            <mxPoint x="1113" y="952" as="targetPoint" />
            <Array as="points">
              <mxPoint x="650" y="1212" />
              <mxPoint x="650" y="1192" />
              <mxPoint x="720" y="1192" />
              <mxPoint x="720" y="1114" />
              <mxPoint x="983" y="1114" />
              <mxPoint x="983" y="878" />
            </Array>
          </mxGeometry>
        </mxCell>
        <mxCell id="UD3QibeRNPxxmpjYGRvA-24" style="edgeStyle=orthogonalEdgeStyle;rounded=0;orthogonalLoop=1;jettySize=auto;html=1;entryX=0;entryY=1;entryDx=0;entryDy=0;curved=1;exitX=0.669;exitY=0.012;exitDx=0;exitDy=0;exitPerimeter=0;" edge="1" parent="1" source="UD3QibeRNPxxmpjYGRvA-25" target="UD3QibeRNPxxmpjYGRvA-16">
          <mxGeometry relative="1" as="geometry">
            <Array as="points">
              <mxPoint x="499" y="1190" />
              <mxPoint x="662" y="1190" />
              <mxPoint x="662" y="1102" />
              <mxPoint x="733" y="1102" />
              <mxPoint x="733" y="878" />
            </Array>
          </mxGeometry>
        </mxCell>
        <mxCell id="UD3QibeRNPxxmpjYGRvA-25" value="" style="ellipse;whiteSpace=wrap;html=1;aspect=fixed;fillColor=#FFFFFF;" vertex="1" parent="1">
          <mxGeometry x="476" y="1210" width="14" height="14" as="geometry" />
        </mxCell>
        <mxCell id="UD3QibeRNPxxmpjYGRvA-26" style="edgeStyle=orthogonalEdgeStyle;rounded=0;orthogonalLoop=1;jettySize=auto;html=1;exitX=1;exitY=0;exitDx=0;exitDy=0;curved=1;endArrow=none;startFill=0;" edge="1" parent="1" source="UD3QibeRNPxxmpjYGRvA-27" target="UD3QibeRNPxxmpjYGRvA-32">
          <mxGeometry relative="1" as="geometry" />
        </mxCell>
        <mxCell id="UD3QibeRNPxxmpjYGRvA-27" value="" style="ellipse;whiteSpace=wrap;html=1;aspect=fixed;fillColor=#FFFFFF;" vertex="1" parent="1">
          <mxGeometry x="623" y="636" width="14" height="14" as="geometry" />
        </mxCell>
        <mxCell id="UD3QibeRNPxxmpjYGRvA-28" value="Code_Type_Encounter&lt;div&gt;&lt;br&gt;&lt;/div&gt;" style="text;html=1;align=center;verticalAlign=middle;resizable=0;points=[];autosize=1;strokeColor=none;fillColor=none;" vertex="1" parent="1">
          <mxGeometry x="467" y="623" width="150" height="40" as="geometry" />
        </mxCell>
        <mxCell id="UD3QibeRNPxxmpjYGRvA-29" style="edgeStyle=orthogonalEdgeStyle;rounded=0;orthogonalLoop=1;jettySize=auto;html=1;exitX=0.5;exitY=1;exitDx=0;exitDy=0;entryX=0;entryY=0;entryDx=0;entryDy=0;curved=1;endArrow=none;startFill=0;" edge="1" parent="1" source="UD3QibeRNPxxmpjYGRvA-30" target="UD3QibeRNPxxmpjYGRvA-27">
          <mxGeometry relative="1" as="geometry" />
        </mxCell>
        <mxCell id="UD3QibeRNPxxmpjYGRvA-30" value="" style="ellipse;whiteSpace=wrap;html=1;aspect=fixed;fillColor=#FFFFFF;" vertex="1" parent="1">
          <mxGeometry x="567" y="556" width="14" height="14" as="geometry" />
        </mxCell>
        <mxCell id="UD3QibeRNPxxmpjYGRvA-31" value="Description" style="text;html=1;align=center;verticalAlign=middle;resizable=0;points=[];autosize=1;strokeColor=none;fillColor=none;" vertex="1" parent="1">
          <mxGeometry x="487" y="556" width="80" height="30" as="geometry" />
        </mxCell>
        <mxCell id="UD3QibeRNPxxmpjYGRvA-32" value="" style="ellipse;whiteSpace=wrap;html=1;aspect=fixed;fillColor=#FFFFFF;" vertex="1" parent="1">
          <mxGeometry x="683" y="556" width="14" height="14" as="geometry" />
        </mxCell>
        <mxCell id="UD3QibeRNPxxmpjYGRvA-33" value="Base_Cost" style="text;html=1;align=center;verticalAlign=middle;resizable=0;points=[];autosize=1;strokeColor=none;fillColor=none;" vertex="1" parent="1">
          <mxGeometry x="693" y="536" width="80" height="30" as="geometry" />
        </mxCell>
        <mxCell id="UD3QibeRNPxxmpjYGRvA-34" value="Id_Class" style="text;html=1;align=center;verticalAlign=middle;resizable=0;points=[];autosize=1;strokeColor=none;fillColor=none;" vertex="1" parent="1">
          <mxGeometry x="313" y="753" width="70" height="30" as="geometry" />
        </mxCell>
        <mxCell id="UD3QibeRNPxxmpjYGRvA-35" style="edgeStyle=orthogonalEdgeStyle;rounded=0;orthogonalLoop=1;jettySize=auto;html=1;exitX=0.5;exitY=1;exitDx=0;exitDy=0;entryX=0.5;entryY=0;entryDx=0;entryDy=0;endArrow=none;startFill=0;" edge="1" parent="1" source="UD3QibeRNPxxmpjYGRvA-36" target="UD3QibeRNPxxmpjYGRvA-8">
          <mxGeometry relative="1" as="geometry" />
        </mxCell>
        <mxCell id="UD3QibeRNPxxmpjYGRvA-36" value="" style="ellipse;whiteSpace=wrap;html=1;aspect=fixed;fillColor=#FFFFFF;" vertex="1" parent="1">
          <mxGeometry x="386" y="685" width="14" height="14" as="geometry" />
        </mxCell>
        <mxCell id="UD3QibeRNPxxmpjYGRvA-37" value="Name" style="text;html=1;align=center;verticalAlign=middle;resizable=0;points=[];autosize=1;strokeColor=none;fillColor=none;" vertex="1" parent="1">
          <mxGeometry x="326" y="655" width="60" height="30" as="geometry" />
        </mxCell>
        <mxCell id="UD3QibeRNPxxmpjYGRvA-38" value="Id_Organization" style="text;html=1;align=center;verticalAlign=middle;resizable=0;points=[];autosize=1;strokeColor=none;fillColor=none;" vertex="1" parent="1">
          <mxGeometry x="697" y="838" width="110" height="30" as="geometry" />
        </mxCell>
        <mxCell id="UD3QibeRNPxxmpjYGRvA-39" style="edgeStyle=orthogonalEdgeStyle;rounded=0;orthogonalLoop=1;jettySize=auto;html=1;exitX=1;exitY=0.5;exitDx=0;exitDy=0;entryX=0;entryY=0.5;entryDx=0;entryDy=0;endArrow=none;startFill=0;" edge="1" parent="1" source="UD3QibeRNPxxmpjYGRvA-40" target="UD3QibeRNPxxmpjYGRvA-64">
          <mxGeometry relative="1" as="geometry" />
        </mxCell>
        <mxCell id="UD3QibeRNPxxmpjYGRvA-40" value="" style="ellipse;whiteSpace=wrap;html=1;aspect=fixed;fillColor=#FFFFFF;" vertex="1" parent="1">
          <mxGeometry x="1003" y="866" width="14" height="14" as="geometry" />
        </mxCell>
        <mxCell id="UD3QibeRNPxxmpjYGRvA-41" value="" style="ellipse;whiteSpace=wrap;html=1;aspect=fixed;fillColor=#FFFFFF;" vertex="1" parent="1">
          <mxGeometry x="803" y="838" width="14" height="14" as="geometry" />
        </mxCell>
        <mxCell id="UD3QibeRNPxxmpjYGRvA-42" value="" style="ellipse;whiteSpace=wrap;html=1;aspect=fixed;fillColor=#FFFFFF;" vertex="1" parent="1">
          <mxGeometry x="840" y="942" width="14" height="14" as="geometry" />
        </mxCell>
        <mxCell id="UD3QibeRNPxxmpjYGRvA-43" value="" style="ellipse;whiteSpace=wrap;html=1;aspect=fixed;fillColor=#FFFFFF;" vertex="1" parent="1">
          <mxGeometry x="803" y="942" width="14" height="14" as="geometry" />
        </mxCell>
        <mxCell id="UD3QibeRNPxxmpjYGRvA-44" value="" style="ellipse;whiteSpace=wrap;html=1;aspect=fixed;fillColor=#FFFFFF;" vertex="1" parent="1">
          <mxGeometry x="903" y="932" width="14" height="14" as="geometry" />
        </mxCell>
        <mxCell id="UD3QibeRNPxxmpjYGRvA-45" value="Name" style="text;html=1;align=center;verticalAlign=middle;resizable=0;points=[];autosize=1;strokeColor=none;fillColor=none;" vertex="1" parent="1">
          <mxGeometry x="753" y="932" width="60" height="30" as="geometry" />
        </mxCell>
        <mxCell id="UD3QibeRNPxxmpjYGRvA-46" value="Address" style="text;strokeColor=none;align=center;fillColor=none;html=1;verticalAlign=middle;whiteSpace=wrap;rounded=0;" vertex="1" parent="1">
          <mxGeometry x="817" y="946" width="60" height="30" as="geometry" />
        </mxCell>
        <mxCell id="UD3QibeRNPxxmpjYGRvA-47" style="edgeStyle=orthogonalEdgeStyle;rounded=0;orthogonalLoop=1;jettySize=auto;html=1;exitX=1;exitY=1;exitDx=0;exitDy=0;entryX=0.5;entryY=0;entryDx=0;entryDy=0;curved=1;endArrow=none;startFill=0;" edge="1" parent="1" source="UD3QibeRNPxxmpjYGRvA-16" target="UD3QibeRNPxxmpjYGRvA-42">
          <mxGeometry relative="1" as="geometry">
            <mxPoint x="870" y="880" as="sourcePoint" />
            <mxPoint x="847" y="942" as="targetPoint" />
            <Array as="points">
              <mxPoint x="838" y="880" />
              <mxPoint x="848" y="880" />
              <mxPoint x="848" y="942" />
            </Array>
          </mxGeometry>
        </mxCell>
        <mxCell id="UD3QibeRNPxxmpjYGRvA-48" style="edgeStyle=orthogonalEdgeStyle;rounded=0;orthogonalLoop=1;jettySize=auto;html=1;exitX=0.934;exitY=0.725;exitDx=0;exitDy=0;curved=1;endArrow=none;startFill=0;exitPerimeter=0;" edge="1" parent="1" source="UD3QibeRNPxxmpjYGRvA-16" target="UD3QibeRNPxxmpjYGRvA-44">
          <mxGeometry relative="1" as="geometry">
            <mxPoint x="848" y="888" as="sourcePoint" />
            <mxPoint x="857" y="952" as="targetPoint" />
            <Array as="points">
              <mxPoint x="853" y="876" />
              <mxPoint x="853" y="882" />
              <mxPoint x="863" y="882" />
              <mxPoint x="863" y="939" />
            </Array>
          </mxGeometry>
        </mxCell>
        <mxCell id="UD3QibeRNPxxmpjYGRvA-49" value="Zip_Code" style="text;html=1;align=center;verticalAlign=middle;resizable=0;points=[];autosize=1;strokeColor=none;fillColor=none;" vertex="1" parent="1">
          <mxGeometry x="863" y="940" width="80" height="30" as="geometry" />
        </mxCell>
        <mxCell id="UD3QibeRNPxxmpjYGRvA-50" value="Lat" style="text;html=1;align=center;verticalAlign=middle;resizable=0;points=[];autosize=1;strokeColor=none;fillColor=none;" vertex="1" parent="1">
          <mxGeometry x="800" y="817" width="40" height="30" as="geometry" />
        </mxCell>
        <mxCell id="UD3QibeRNPxxmpjYGRvA-51" value="" style="ellipse;whiteSpace=wrap;html=1;aspect=fixed;fillColor=#FFFFFF;" vertex="1" parent="1">
          <mxGeometry x="839" y="830" width="14" height="14" as="geometry" />
        </mxCell>
        <mxCell id="UD3QibeRNPxxmpjYGRvA-52" value="Lon" style="text;html=1;align=center;verticalAlign=middle;resizable=0;points=[];autosize=1;strokeColor=none;fillColor=none;" vertex="1" parent="1">
          <mxGeometry x="826" y="808" width="40" height="30" as="geometry" />
        </mxCell>
        <mxCell id="UD3QibeRNPxxmpjYGRvA-53" value="Phone" style="text;html=1;align=center;verticalAlign=middle;resizable=0;points=[];autosize=1;strokeColor=none;fillColor=none;" vertex="1" parent="1">
          <mxGeometry x="857" y="808" width="60" height="30" as="geometry" />
        </mxCell>
        <mxCell id="UD3QibeRNPxxmpjYGRvA-54" value="" style="ellipse;whiteSpace=wrap;html=1;aspect=fixed;fillColor=#FFFFFF;" vertex="1" parent="1">
          <mxGeometry x="903" y="832" width="14" height="14" as="geometry" />
        </mxCell>
        <mxCell id="UD3QibeRNPxxmpjYGRvA-55" value="" style="ellipse;whiteSpace=wrap;html=1;aspect=fixed;fillColor=#FFFFFF;" vertex="1" parent="1">
          <mxGeometry x="903" y="888" width="14" height="14" as="geometry" />
        </mxCell>
        <mxCell id="UD3QibeRNPxxmpjYGRvA-56" value="Revenue" style="text;html=1;align=center;verticalAlign=middle;resizable=0;points=[];autosize=1;strokeColor=none;fillColor=none;" vertex="1" parent="1">
          <mxGeometry x="903" y="814" width="70" height="30" as="geometry" />
        </mxCell>
        <mxCell id="UD3QibeRNPxxmpjYGRvA-57" value="Utilization" style="text;html=1;align=center;verticalAlign=middle;resizable=0;points=[];autosize=1;strokeColor=none;fillColor=none;" vertex="1" parent="1">
          <mxGeometry x="873" y="894" width="80" height="30" as="geometry" />
        </mxCell>
        <mxCell id="UD3QibeRNPxxmpjYGRvA-58" value="Id_City" style="text;html=1;align=center;verticalAlign=middle;resizable=0;points=[];autosize=1;strokeColor=none;fillColor=none;" vertex="1" parent="1">
          <mxGeometry x="1003" y="872" width="60" height="30" as="geometry" />
        </mxCell>
        <mxCell id="UD3QibeRNPxxmpjYGRvA-59" style="edgeStyle=orthogonalEdgeStyle;rounded=0;orthogonalLoop=1;jettySize=auto;html=1;entryX=0.5;entryY=1;entryDx=0;entryDy=0;endArrow=none;startFill=0;" edge="1" parent="1" source="UD3QibeRNPxxmpjYGRvA-60" target="UD3QibeRNPxxmpjYGRvA-40">
          <mxGeometry relative="1" as="geometry" />
        </mxCell>
        <mxCell id="UD3QibeRNPxxmpjYGRvA-60" value="" style="ellipse;whiteSpace=wrap;html=1;aspect=fixed;fillColor=#FFFFFF;" vertex="1" parent="1">
          <mxGeometry x="1003" y="902" width="14" height="14" as="geometry" />
        </mxCell>
        <mxCell id="UD3QibeRNPxxmpjYGRvA-61" value="Name" style="text;html=1;align=center;verticalAlign=middle;resizable=0;points=[];autosize=1;strokeColor=none;fillColor=none;" vertex="1" parent="1">
          <mxGeometry x="980" y="910" width="60" height="30" as="geometry" />
        </mxCell>
        <mxCell id="UD3QibeRNPxxmpjYGRvA-62" style="edgeStyle=orthogonalEdgeStyle;rounded=0;orthogonalLoop=1;jettySize=auto;html=1;exitX=0.5;exitY=1;exitDx=0;exitDy=0;entryX=0.5;entryY=0;entryDx=0;entryDy=0;endArrow=none;startFill=0;" edge="1" parent="1" source="UD3QibeRNPxxmpjYGRvA-64" target="UD3QibeRNPxxmpjYGRvA-66">
          <mxGeometry relative="1" as="geometry" />
        </mxCell>
        <mxCell id="UD3QibeRNPxxmpjYGRvA-63" style="edgeStyle=orthogonalEdgeStyle;rounded=0;orthogonalLoop=1;jettySize=auto;html=1;exitX=1;exitY=0.5;exitDx=0;exitDy=0;entryX=0;entryY=0.5;entryDx=0;entryDy=0;endArrow=none;startFill=0;" edge="1" parent="1" source="UD3QibeRNPxxmpjYGRvA-64" target="UD3QibeRNPxxmpjYGRvA-69">
          <mxGeometry relative="1" as="geometry" />
        </mxCell>
        <mxCell id="UD3QibeRNPxxmpjYGRvA-64" value="" style="ellipse;whiteSpace=wrap;html=1;aspect=fixed;fillColor=#FFFFFF;" vertex="1" parent="1">
          <mxGeometry x="1083" y="866" width="14" height="14" as="geometry" />
        </mxCell>
        <mxCell id="UD3QibeRNPxxmpjYGRvA-65" value="Id_County" style="text;html=1;align=center;verticalAlign=middle;resizable=0;points=[];autosize=1;strokeColor=none;fillColor=none;" vertex="1" parent="1">
          <mxGeometry x="1050" y="838" width="80" height="30" as="geometry" />
        </mxCell>
        <mxCell id="UD3QibeRNPxxmpjYGRvA-66" value="" style="ellipse;whiteSpace=wrap;html=1;aspect=fixed;fillColor=#FFFFFF;" vertex="1" parent="1">
          <mxGeometry x="1083" y="902" width="14" height="14" as="geometry" />
        </mxCell>
        <mxCell id="UD3QibeRNPxxmpjYGRvA-67" value="Name" style="text;html=1;align=center;verticalAlign=middle;resizable=0;points=[];autosize=1;strokeColor=none;fillColor=none;" vertex="1" parent="1">
          <mxGeometry x="1060" y="912" width="60" height="30" as="geometry" />
        </mxCell>
        <mxCell id="UD3QibeRNPxxmpjYGRvA-68" style="edgeStyle=orthogonalEdgeStyle;rounded=0;orthogonalLoop=1;jettySize=auto;html=1;exitX=0.5;exitY=1;exitDx=0;exitDy=0;entryX=0.5;entryY=0;entryDx=0;entryDy=0;endArrow=none;startFill=0;" edge="1" parent="1" source="UD3QibeRNPxxmpjYGRvA-69" target="UD3QibeRNPxxmpjYGRvA-71">
          <mxGeometry relative="1" as="geometry" />
        </mxCell>
        <mxCell id="UD3QibeRNPxxmpjYGRvA-69" value="" style="ellipse;whiteSpace=wrap;html=1;aspect=fixed;fillColor=#FFFFFF;" vertex="1" parent="1">
          <mxGeometry x="1153" y="866" width="14" height="14" as="geometry" />
        </mxCell>
        <mxCell id="UD3QibeRNPxxmpjYGRvA-70" value="Id_State" style="text;html=1;align=center;verticalAlign=middle;resizable=0;points=[];autosize=1;strokeColor=none;fillColor=none;" vertex="1" parent="1">
          <mxGeometry x="1125" y="838" width="70" height="30" as="geometry" />
        </mxCell>
        <mxCell id="UD3QibeRNPxxmpjYGRvA-71" value="" style="ellipse;whiteSpace=wrap;html=1;aspect=fixed;fillColor=#FFFFFF;" vertex="1" parent="1">
          <mxGeometry x="1153" y="902" width="14" height="14" as="geometry" />
        </mxCell>
        <mxCell id="UD3QibeRNPxxmpjYGRvA-72" value="Name" style="text;html=1;align=center;verticalAlign=middle;resizable=0;points=[];autosize=1;strokeColor=none;fillColor=none;" vertex="1" parent="1">
          <mxGeometry x="1130" y="910" width="60" height="30" as="geometry" />
        </mxCell>
        <mxCell id="UD3QibeRNPxxmpjYGRvA-73" value="Id_Provider" style="text;html=1;align=center;verticalAlign=middle;resizable=0;points=[];autosize=1;strokeColor=none;fillColor=none;" vertex="1" parent="1">
          <mxGeometry x="410" y="1180" width="80" height="30" as="geometry" />
        </mxCell>
        <mxCell id="UD3QibeRNPxxmpjYGRvA-74" style="edgeStyle=orthogonalEdgeStyle;rounded=0;orthogonalLoop=1;jettySize=auto;html=1;exitX=0.5;exitY=0;exitDx=0;exitDy=0;entryX=0.5;entryY=1;entryDx=0;entryDy=0;curved=1;endArrow=none;startFill=0;" edge="1" parent="1" source="UD3QibeRNPxxmpjYGRvA-75" target="UD3QibeRNPxxmpjYGRvA-25">
          <mxGeometry relative="1" as="geometry">
            <Array as="points">
              <mxPoint x="460" y="1283" />
              <mxPoint x="493" y="1283" />
            </Array>
          </mxGeometry>
        </mxCell>
        <mxCell id="UD3QibeRNPxxmpjYGRvA-75" value="" style="ellipse;whiteSpace=wrap;html=1;aspect=fixed;fillColor=#FFFFFF;" vertex="1" parent="1">
          <mxGeometry x="453" y="1276" width="14" height="14" as="geometry" />
        </mxCell>
        <mxCell id="UD3QibeRNPxxmpjYGRvA-76" value="" style="ellipse;whiteSpace=wrap;html=1;aspect=fixed;fillColor=#FFFFFF;" vertex="1" parent="1">
          <mxGeometry x="396" y="1262" width="14" height="14" as="geometry" />
        </mxCell>
        <mxCell id="UD3QibeRNPxxmpjYGRvA-77" value="" style="ellipse;whiteSpace=wrap;html=1;aspect=fixed;fillColor=#FFFFFF;" vertex="1" parent="1">
          <mxGeometry x="422" y="1276" width="14" height="14" as="geometry" />
        </mxCell>
        <mxCell id="UD3QibeRNPxxmpjYGRvA-78" value="" style="ellipse;whiteSpace=wrap;html=1;aspect=fixed;fillColor=#FFFFFF;" vertex="1" parent="1">
          <mxGeometry x="380" y="1240" width="14" height="14" as="geometry" />
        </mxCell>
        <mxCell id="UD3QibeRNPxxmpjYGRvA-79" value="First_Name" style="text;html=1;align=center;verticalAlign=middle;resizable=0;points=[];autosize=1;strokeColor=none;fillColor=none;" vertex="1" parent="1">
          <mxGeometry x="300" y="1232" width="90" height="30" as="geometry" />
        </mxCell>
        <mxCell id="UD3QibeRNPxxmpjYGRvA-80" value="Last_Name" style="text;html=1;align=center;verticalAlign=middle;resizable=0;points=[];autosize=1;strokeColor=none;fillColor=none;" vertex="1" parent="1">
          <mxGeometry x="320" y="1254" width="80" height="30" as="geometry" />
        </mxCell>
        <mxCell id="UD3QibeRNPxxmpjYGRvA-81" value="Gender" style="text;html=1;align=center;verticalAlign=middle;resizable=0;points=[];autosize=1;strokeColor=none;fillColor=none;" vertex="1" parent="1">
          <mxGeometry x="380" y="1284" width="60" height="30" as="geometry" />
        </mxCell>
        <mxCell id="UD3QibeRNPxxmpjYGRvA-82" value="Address" style="text;html=1;align=center;verticalAlign=middle;resizable=0;points=[];autosize=1;strokeColor=none;fillColor=none;" vertex="1" parent="1">
          <mxGeometry x="431" y="1288" width="70" height="30" as="geometry" />
        </mxCell>
        <mxCell id="UD3QibeRNPxxmpjYGRvA-83" value="Zip_Code" style="text;html=1;align=center;verticalAlign=middle;resizable=0;points=[];autosize=1;strokeColor=none;fillColor=none;" vertex="1" parent="1">
          <mxGeometry x="497" y="1276" width="80" height="30" as="geometry" />
        </mxCell>
        <mxCell id="UD3QibeRNPxxmpjYGRvA-84" value="" style="ellipse;whiteSpace=wrap;html=1;aspect=fixed;fillColor=#FFFFFF;" vertex="1" parent="1">
          <mxGeometry x="516" y="1270" width="14" height="14" as="geometry" />
        </mxCell>
        <mxCell id="UD3QibeRNPxxmpjYGRvA-85" value="Lon" style="text;html=1;align=center;verticalAlign=middle;resizable=0;points=[];autosize=1;strokeColor=none;fillColor=none;" vertex="1" parent="1">
          <mxGeometry x="591" y="1240" width="40" height="30" as="geometry" />
        </mxCell>
        <mxCell id="UD3QibeRNPxxmpjYGRvA-86" value="Lat" style="text;html=1;align=center;verticalAlign=middle;resizable=0;points=[];autosize=1;strokeColor=none;fillColor=none;" vertex="1" parent="1">
          <mxGeometry x="582" y="1262" width="40" height="30" as="geometry" />
        </mxCell>
        <mxCell id="UD3QibeRNPxxmpjYGRvA-87" value="" style="ellipse;whiteSpace=wrap;html=1;aspect=fixed;fillColor=#FFFFFF;" vertex="1" parent="1">
          <mxGeometry x="577" y="1270" width="14" height="14" as="geometry" />
        </mxCell>
        <mxCell id="UD3QibeRNPxxmpjYGRvA-88" value="" style="ellipse;whiteSpace=wrap;html=1;aspect=fixed;fillColor=#FFFFFF;" vertex="1" parent="1">
          <mxGeometry x="582" y="1248" width="14" height="14" as="geometry" />
        </mxCell>
        <mxCell id="UD3QibeRNPxxmpjYGRvA-89" style="edgeStyle=orthogonalEdgeStyle;rounded=0;orthogonalLoop=1;jettySize=auto;html=1;exitX=1;exitY=0.5;exitDx=0;exitDy=0;entryX=0;entryY=0.5;entryDx=0;entryDy=0;endArrow=none;startFill=0;curved=1;" edge="1" parent="1" source="UD3QibeRNPxxmpjYGRvA-25" target="UD3QibeRNPxxmpjYGRvA-88">
          <mxGeometry relative="1" as="geometry" />
        </mxCell>
        <mxCell id="UD3QibeRNPxxmpjYGRvA-90" style="edgeStyle=orthogonalEdgeStyle;rounded=0;orthogonalLoop=1;jettySize=auto;html=1;exitX=0;exitY=0;exitDx=0;exitDy=0;entryX=0.981;entryY=0.726;entryDx=0;entryDy=0;entryPerimeter=0;endArrow=none;startFill=0;curved=1;" edge="1" parent="1" source="UD3QibeRNPxxmpjYGRvA-87" target="UD3QibeRNPxxmpjYGRvA-25">
          <mxGeometry relative="1" as="geometry" />
        </mxCell>
        <mxCell id="UD3QibeRNPxxmpjYGRvA-91" value="" style="ellipse;whiteSpace=wrap;html=1;aspect=fixed;fillColor=#FFFFFF;" vertex="1" parent="1">
          <mxGeometry x="582" y="1224" width="14" height="14" as="geometry" />
        </mxCell>
        <mxCell id="UD3QibeRNPxxmpjYGRvA-92" value="Utilization" style="text;html=1;align=center;verticalAlign=middle;resizable=0;points=[];autosize=1;strokeColor=none;fillColor=none;" vertex="1" parent="1">
          <mxGeometry x="586" y="1216" width="80" height="30" as="geometry" />
        </mxCell>
        <mxCell id="UD3QibeRNPxxmpjYGRvA-93" style="edgeStyle=orthogonalEdgeStyle;rounded=0;orthogonalLoop=1;jettySize=auto;html=1;exitX=0.924;exitY=0.747;exitDx=0;exitDy=0;entryX=0.5;entryY=0;entryDx=0;entryDy=0;curved=1;exitPerimeter=0;" edge="1" parent="1" source="UD3QibeRNPxxmpjYGRvA-109" target="UD3QibeRNPxxmpjYGRvA-40">
          <mxGeometry relative="1" as="geometry" />
        </mxCell>
        <mxCell id="UD3QibeRNPxxmpjYGRvA-94" style="edgeStyle=orthogonalEdgeStyle;rounded=0;orthogonalLoop=1;jettySize=auto;html=1;exitX=0.355;exitY=0.017;exitDx=0;exitDy=0;entryX=0.5;entryY=1;entryDx=0;entryDy=0;curved=1;endArrow=none;startFill=0;exitPerimeter=0;" edge="1" parent="1" source="UD3QibeRNPxxmpjYGRvA-109" target="UD3QibeRNPxxmpjYGRvA-114">
          <mxGeometry relative="1" as="geometry" />
        </mxCell>
        <mxCell id="UD3QibeRNPxxmpjYGRvA-95" style="edgeStyle=orthogonalEdgeStyle;rounded=0;orthogonalLoop=1;jettySize=auto;html=1;exitX=0.5;exitY=0;exitDx=0;exitDy=0;entryX=0.5;entryY=1;entryDx=0;entryDy=0;curved=1;endArrow=none;startFill=0;" edge="1" parent="1" source="UD3QibeRNPxxmpjYGRvA-109" target="UD3QibeRNPxxmpjYGRvA-112">
          <mxGeometry relative="1" as="geometry" />
        </mxCell>
        <mxCell id="UD3QibeRNPxxmpjYGRvA-96" style="edgeStyle=orthogonalEdgeStyle;rounded=0;orthogonalLoop=1;jettySize=auto;html=1;exitX=0.673;exitY=0.055;exitDx=0;exitDy=0;entryX=0.5;entryY=1;entryDx=0;entryDy=0;curved=1;exitPerimeter=0;endArrow=none;startFill=0;" edge="1" parent="1" source="UD3QibeRNPxxmpjYGRvA-109" target="UD3QibeRNPxxmpjYGRvA-113">
          <mxGeometry relative="1" as="geometry">
            <mxPoint x="963" y="422" as="targetPoint" />
          </mxGeometry>
        </mxCell>
        <mxCell id="UD3QibeRNPxxmpjYGRvA-97" style="edgeStyle=orthogonalEdgeStyle;rounded=0;orthogonalLoop=1;jettySize=auto;html=1;exitX=0.651;exitY=0.036;exitDx=0;exitDy=0;entryX=0.5;entryY=1;entryDx=0;entryDy=0;curved=1;exitPerimeter=0;endArrow=none;startFill=0;" edge="1" parent="1" source="UD3QibeRNPxxmpjYGRvA-109" target="UD3QibeRNPxxmpjYGRvA-111">
          <mxGeometry relative="1" as="geometry">
            <mxPoint x="1043" y="372" as="targetPoint" />
            <Array as="points">
              <mxPoint x="953" y="632" />
              <mxPoint x="953" y="472" />
              <mxPoint x="1043" y="472" />
              <mxPoint x="1043" y="312" />
            </Array>
          </mxGeometry>
        </mxCell>
        <mxCell id="UD3QibeRNPxxmpjYGRvA-98" style="edgeStyle=orthogonalEdgeStyle;rounded=0;orthogonalLoop=1;jettySize=auto;html=1;exitX=0.978;exitY=0.364;exitDx=0;exitDy=0;entryX=0.5;entryY=1;entryDx=0;entryDy=0;exitPerimeter=0;curved=1;endArrow=none;startFill=0;" edge="1" parent="1" source="UD3QibeRNPxxmpjYGRvA-109" target="UD3QibeRNPxxmpjYGRvA-137">
          <mxGeometry relative="1" as="geometry">
            <mxPoint x="1143.655737704918" y="638.9508196721312" as="targetPoint" />
            <Array as="points">
              <mxPoint x="1140" y="637" />
            </Array>
          </mxGeometry>
        </mxCell>
        <mxCell id="UD3QibeRNPxxmpjYGRvA-99" style="edgeStyle=orthogonalEdgeStyle;rounded=0;orthogonalLoop=1;jettySize=auto;html=1;exitX=1;exitY=0.5;exitDx=0;exitDy=0;entryX=0;entryY=0.5;entryDx=0;entryDy=0;curved=1;endArrow=none;startFill=0;" edge="1" parent="1" source="UD3QibeRNPxxmpjYGRvA-109" target="UD3QibeRNPxxmpjYGRvA-138">
          <mxGeometry relative="1" as="geometry">
            <Array as="points">
              <mxPoint x="1123" y="639" />
              <mxPoint x="1123" y="579" />
            </Array>
          </mxGeometry>
        </mxCell>
        <mxCell id="UD3QibeRNPxxmpjYGRvA-100" style="edgeStyle=orthogonalEdgeStyle;rounded=0;orthogonalLoop=1;jettySize=auto;html=1;exitX=1;exitY=0.5;exitDx=0;exitDy=0;entryX=0;entryY=0.5;entryDx=0;entryDy=0;curved=1;endArrow=none;startFill=0;" edge="1" parent="1" source="UD3QibeRNPxxmpjYGRvA-109" target="UD3QibeRNPxxmpjYGRvA-139">
          <mxGeometry relative="1" as="geometry">
            <Array as="points">
              <mxPoint x="1103" y="639" />
              <mxPoint x="1103" y="625" />
            </Array>
          </mxGeometry>
        </mxCell>
        <mxCell id="UD3QibeRNPxxmpjYGRvA-101" style="edgeStyle=orthogonalEdgeStyle;rounded=0;orthogonalLoop=1;jettySize=auto;html=1;exitX=0.976;exitY=0.669;exitDx=0;exitDy=0;entryX=0;entryY=0.5;entryDx=0;entryDy=0;curved=1;exitPerimeter=0;endArrow=none;startFill=0;" edge="1" parent="1" source="UD3QibeRNPxxmpjYGRvA-109" target="UD3QibeRNPxxmpjYGRvA-140">
          <mxGeometry relative="1" as="geometry" />
        </mxCell>
        <mxCell id="UD3QibeRNPxxmpjYGRvA-102" style="edgeStyle=orthogonalEdgeStyle;rounded=0;orthogonalLoop=1;jettySize=auto;html=1;exitX=1.013;exitY=0.249;exitDx=0;exitDy=0;entryX=0.5;entryY=0;entryDx=0;entryDy=0;curved=1;endArrow=none;startFill=0;exitPerimeter=0;" edge="1" parent="1" source="UD3QibeRNPxxmpjYGRvA-110" target="UD3QibeRNPxxmpjYGRvA-148">
          <mxGeometry relative="1" as="geometry">
            <Array as="points">
              <mxPoint x="900" y="646" />
              <mxPoint x="900" y="679" />
              <mxPoint x="873" y="679" />
            </Array>
          </mxGeometry>
        </mxCell>
        <mxCell id="UD3QibeRNPxxmpjYGRvA-103" style="edgeStyle=orthogonalEdgeStyle;rounded=0;orthogonalLoop=1;jettySize=auto;html=1;exitX=0;exitY=1;exitDx=0;exitDy=0;entryX=0.5;entryY=0;entryDx=0;entryDy=0;curved=1;endArrow=none;startFill=0;" edge="1" parent="1" source="UD3QibeRNPxxmpjYGRvA-109" target="UD3QibeRNPxxmpjYGRvA-147">
          <mxGeometry relative="1" as="geometry">
            <Array as="points">
              <mxPoint x="895" y="662" />
              <mxPoint x="853" y="662" />
            </Array>
          </mxGeometry>
        </mxCell>
        <mxCell id="UD3QibeRNPxxmpjYGRvA-104" style="edgeStyle=orthogonalEdgeStyle;rounded=0;orthogonalLoop=1;jettySize=auto;html=1;exitX=0.7;exitY=0.961;exitDx=0;exitDy=0;entryX=0.5;entryY=0;entryDx=0;entryDy=0;exitPerimeter=0;curved=1;endArrow=none;startFill=0;" edge="1" parent="1" source="UD3QibeRNPxxmpjYGRvA-109" target="UD3QibeRNPxxmpjYGRvA-150">
          <mxGeometry relative="1" as="geometry">
            <Array as="points">
              <mxPoint x="903" y="679" />
              <mxPoint x="910" y="679" />
            </Array>
          </mxGeometry>
        </mxCell>
        <mxCell id="UD3QibeRNPxxmpjYGRvA-105" style="edgeStyle=orthogonalEdgeStyle;rounded=0;orthogonalLoop=1;jettySize=auto;html=1;exitX=0.797;exitY=0.928;exitDx=0;exitDy=0;entryX=0.5;entryY=0;entryDx=0;entryDy=0;curved=1;endArrow=none;startFill=0;exitPerimeter=0;" edge="1" parent="1">
          <mxGeometry relative="1" as="geometry">
            <mxPoint x="902.998" y="644.992" as="sourcePoint" />
            <mxPoint x="932.84" y="755.9999999999999" as="targetPoint" />
          </mxGeometry>
        </mxCell>
        <mxCell id="UD3QibeRNPxxmpjYGRvA-106" style="edgeStyle=orthogonalEdgeStyle;rounded=0;orthogonalLoop=1;jettySize=auto;html=1;exitX=1;exitY=1;exitDx=0;exitDy=0;entryX=0.5;entryY=0;entryDx=0;entryDy=0;curved=1;endArrow=none;startFill=0;" edge="1" parent="1" source="UD3QibeRNPxxmpjYGRvA-109" target="UD3QibeRNPxxmpjYGRvA-152">
          <mxGeometry relative="1" as="geometry" />
        </mxCell>
        <mxCell id="UD3QibeRNPxxmpjYGRvA-107" style="edgeStyle=orthogonalEdgeStyle;rounded=0;orthogonalLoop=1;jettySize=auto;html=1;exitX=1;exitY=0.5;exitDx=0;exitDy=0;entryX=0;entryY=0.5;entryDx=0;entryDy=0;curved=1;endArrow=none;startFill=0;" edge="1" parent="1" source="UD3QibeRNPxxmpjYGRvA-109" target="UD3QibeRNPxxmpjYGRvA-156">
          <mxGeometry relative="1" as="geometry" />
        </mxCell>
        <mxCell id="UD3QibeRNPxxmpjYGRvA-108" style="edgeStyle=orthogonalEdgeStyle;rounded=0;orthogonalLoop=1;jettySize=auto;html=1;exitX=1;exitY=0.5;exitDx=0;exitDy=0;entryX=0;entryY=0.5;entryDx=0;entryDy=0;curved=1;endArrow=none;startFill=0;" edge="1" parent="1" source="UD3QibeRNPxxmpjYGRvA-109" target="UD3QibeRNPxxmpjYGRvA-159">
          <mxGeometry relative="1" as="geometry">
            <mxPoint x="1043" y="742" as="targetPoint" />
          </mxGeometry>
        </mxCell>
        <mxCell id="UD3QibeRNPxxmpjYGRvA-109" value="" style="ellipse;whiteSpace=wrap;html=1;aspect=fixed;fillColor=#FFFFFF;" vertex="1" parent="1">
          <mxGeometry x="893" y="632" width="14" height="14" as="geometry" />
        </mxCell>
        <mxCell id="UD3QibeRNPxxmpjYGRvA-110" value="Id_Patient" style="text;html=1;align=center;verticalAlign=middle;resizable=0;points=[];autosize=1;strokeColor=none;fillColor=none;" vertex="1" parent="1">
          <mxGeometry x="817" y="638" width="80" height="30" as="geometry" />
        </mxCell>
        <mxCell id="UD3QibeRNPxxmpjYGRvA-111" value="" style="ellipse;whiteSpace=wrap;html=1;aspect=fixed;fillColor=#FFFFFF;" vertex="1" parent="1">
          <mxGeometry x="1026" y="298" width="14" height="14" as="geometry" />
        </mxCell>
        <mxCell id="UD3QibeRNPxxmpjYGRvA-112" value="" style="ellipse;whiteSpace=wrap;html=1;aspect=fixed;fillColor=#FFFFFF;" vertex="1" parent="1">
          <mxGeometry x="903" y="402" width="14" height="14" as="geometry" />
        </mxCell>
        <mxCell id="UD3QibeRNPxxmpjYGRvA-113" value="" style="ellipse;whiteSpace=wrap;html=1;aspect=fixed;fillColor=#FFFFFF;" vertex="1" parent="1">
          <mxGeometry x="959" y="402" width="14" height="14" as="geometry" />
        </mxCell>
        <mxCell id="UD3QibeRNPxxmpjYGRvA-114" value="" style="ellipse;whiteSpace=wrap;html=1;aspect=fixed;fillColor=#FFFFFF;" vertex="1" parent="1">
          <mxGeometry x="863" y="402" width="14" height="14" as="geometry" />
        </mxCell>
        <mxCell id="UD3QibeRNPxxmpjYGRvA-115" value="Last_Name" style="text;html=1;align=center;verticalAlign=middle;resizable=0;points=[];autosize=1;strokeColor=none;fillColor=none;" vertex="1" parent="1">
          <mxGeometry x="807" y="372" width="80" height="30" as="geometry" />
        </mxCell>
        <mxCell id="UD3QibeRNPxxmpjYGRvA-116" value="Gender" style="text;html=1;align=center;verticalAlign=middle;resizable=0;points=[];autosize=1;strokeColor=none;fillColor=none;" vertex="1" parent="1">
          <mxGeometry x="957" y="372" width="60" height="30" as="geometry" />
        </mxCell>
        <mxCell id="UD3QibeRNPxxmpjYGRvA-117" value="First_Name" style="text;html=1;align=center;verticalAlign=middle;resizable=0;points=[];autosize=1;strokeColor=none;fillColor=none;" vertex="1" parent="1">
          <mxGeometry x="877" y="372" width="90" height="30" as="geometry" />
        </mxCell>
        <mxCell id="UD3QibeRNPxxmpjYGRvA-118" value="" style="ellipse;whiteSpace=wrap;html=1;aspect=fixed;fillColor=#FFFFFF;" vertex="1" parent="1">
          <mxGeometry x="1120" y="298" width="14" height="14" as="geometry" />
        </mxCell>
        <mxCell id="UD3QibeRNPxxmpjYGRvA-119" value="" style="ellipse;whiteSpace=wrap;html=1;aspect=fixed;fillColor=#FFFFFF;" vertex="1" parent="1">
          <mxGeometry x="1069" y="298" width="14" height="14" as="geometry" />
        </mxCell>
        <mxCell id="UD3QibeRNPxxmpjYGRvA-120" value="" style="ellipse;whiteSpace=wrap;html=1;aspect=fixed;fillColor=#FFFFFF;" vertex="1" parent="1">
          <mxGeometry x="1163" y="298" width="14" height="14" as="geometry" />
        </mxCell>
        <mxCell id="UD3QibeRNPxxmpjYGRvA-121" value="Birthdate" style="text;html=1;align=center;verticalAlign=middle;resizable=0;points=[];autosize=1;strokeColor=none;fillColor=none;" vertex="1" parent="1">
          <mxGeometry x="973" y="272" width="70" height="30" as="geometry" />
        </mxCell>
        <mxCell id="UD3QibeRNPxxmpjYGRvA-122" value="Deathdate" style="text;html=1;align=center;verticalAlign=middle;resizable=0;points=[];autosize=1;strokeColor=none;fillColor=none;" vertex="1" parent="1">
          <mxGeometry x="1036" y="272" width="80" height="30" as="geometry" />
        </mxCell>
        <mxCell id="UD3QibeRNPxxmpjYGRvA-123" value="SSN" style="text;html=1;align=center;verticalAlign=middle;resizable=0;points=[];autosize=1;strokeColor=none;fillColor=none;" vertex="1" parent="1">
          <mxGeometry x="1103" y="272" width="50" height="30" as="geometry" />
        </mxCell>
        <mxCell id="UD3QibeRNPxxmpjYGRvA-124" value="Drivers" style="text;html=1;align=center;verticalAlign=middle;resizable=0;points=[];autosize=1;strokeColor=none;fillColor=none;" vertex="1" parent="1">
          <mxGeometry x="1143" y="270" width="60" height="30" as="geometry" />
        </mxCell>
        <mxCell id="UD3QibeRNPxxmpjYGRvA-125" style="edgeStyle=orthogonalEdgeStyle;rounded=0;orthogonalLoop=1;jettySize=auto;html=1;exitX=1;exitY=0;exitDx=0;exitDy=0;entryX=0.5;entryY=1;entryDx=0;entryDy=0;curved=1;endArrow=none;startFill=0;" edge="1" parent="1" source="UD3QibeRNPxxmpjYGRvA-109" target="UD3QibeRNPxxmpjYGRvA-119">
          <mxGeometry relative="1" as="geometry">
            <mxPoint x="1043" y="322" as="targetPoint" />
            <mxPoint x="914" y="643" as="sourcePoint" />
            <Array as="points">
              <mxPoint x="905" y="632" />
              <mxPoint x="963" y="632" />
              <mxPoint x="963" y="482" />
              <mxPoint x="1073" y="482" />
              <mxPoint x="1073" y="312" />
            </Array>
          </mxGeometry>
        </mxCell>
        <mxCell id="UD3QibeRNPxxmpjYGRvA-126" style="edgeStyle=orthogonalEdgeStyle;rounded=0;orthogonalLoop=1;jettySize=auto;html=1;exitX=1;exitY=0;exitDx=0;exitDy=0;entryX=0.5;entryY=1;entryDx=0;entryDy=0;curved=1;endArrow=none;startFill=0;" edge="1" parent="1" source="UD3QibeRNPxxmpjYGRvA-109" target="UD3QibeRNPxxmpjYGRvA-118">
          <mxGeometry relative="1" as="geometry">
            <mxPoint x="1146" y="329" as="targetPoint" />
            <mxPoint x="1017" y="650" as="sourcePoint" />
            <Array as="points">
              <mxPoint x="1066" y="634" />
              <mxPoint x="1066" y="489" />
              <mxPoint x="1123" y="489" />
              <mxPoint x="1123" y="312" />
            </Array>
          </mxGeometry>
        </mxCell>
        <mxCell id="UD3QibeRNPxxmpjYGRvA-127" style="edgeStyle=orthogonalEdgeStyle;rounded=0;orthogonalLoop=1;jettySize=auto;html=1;exitX=0.947;exitY=0.277;exitDx=0;exitDy=0;entryX=0.5;entryY=1;entryDx=0;entryDy=0;curved=1;endArrow=none;startFill=0;exitPerimeter=0;" edge="1" parent="1" source="UD3QibeRNPxxmpjYGRvA-109" target="UD3QibeRNPxxmpjYGRvA-120">
          <mxGeometry relative="1" as="geometry">
            <mxPoint x="1137" y="322" as="targetPoint" />
            <mxPoint x="915" y="644" as="sourcePoint" />
            <Array as="points">
              <mxPoint x="906" y="632" />
              <mxPoint x="1073" y="632" />
              <mxPoint x="1073" y="499" />
              <mxPoint x="1133" y="499" />
              <mxPoint x="1133" y="322" />
              <mxPoint x="1170" y="322" />
            </Array>
          </mxGeometry>
        </mxCell>
        <mxCell id="UD3QibeRNPxxmpjYGRvA-128" style="edgeStyle=orthogonalEdgeStyle;rounded=0;orthogonalLoop=1;jettySize=auto;html=1;exitX=0.5;exitY=1;exitDx=0;exitDy=0;entryX=0.234;entryY=0.075;entryDx=0;entryDy=0;endArrow=none;startFill=0;curved=1;entryPerimeter=0;" edge="1" parent="1" source="UD3QibeRNPxxmpjYGRvA-129" target="UD3QibeRNPxxmpjYGRvA-109">
          <mxGeometry relative="1" as="geometry">
            <Array as="points">
              <mxPoint x="832" y="534" />
              <mxPoint x="873" y="534" />
              <mxPoint x="873" y="622" />
              <mxPoint x="896" y="622" />
            </Array>
          </mxGeometry>
        </mxCell>
        <mxCell id="UD3QibeRNPxxmpjYGRvA-129" value="" style="ellipse;whiteSpace=wrap;html=1;aspect=fixed;fillColor=#FFFFFF;" vertex="1" parent="1">
          <mxGeometry x="825" y="422" width="14" height="14" as="geometry" />
        </mxCell>
        <mxCell id="UD3QibeRNPxxmpjYGRvA-130" style="edgeStyle=orthogonalEdgeStyle;rounded=0;orthogonalLoop=1;jettySize=auto;html=1;exitX=1;exitY=1;exitDx=0;exitDy=0;entryX=0;entryY=0;entryDx=0;entryDy=0;curved=1;endArrow=none;startFill=0;" edge="1" parent="1" source="UD3QibeRNPxxmpjYGRvA-131" target="UD3QibeRNPxxmpjYGRvA-109">
          <mxGeometry relative="1" as="geometry">
            <Array as="points">
              <mxPoint x="805" y="484" />
              <mxPoint x="833" y="484" />
              <mxPoint x="833" y="622" />
              <mxPoint x="895" y="622" />
            </Array>
          </mxGeometry>
        </mxCell>
        <mxCell id="UD3QibeRNPxxmpjYGRvA-131" value="" style="ellipse;whiteSpace=wrap;html=1;aspect=fixed;fillColor=#FFFFFF;" vertex="1" parent="1">
          <mxGeometry x="793" y="444" width="14" height="14" as="geometry" />
        </mxCell>
        <mxCell id="UD3QibeRNPxxmpjYGRvA-132" value="Passport" style="text;html=1;align=center;verticalAlign=middle;resizable=0;points=[];autosize=1;strokeColor=none;fillColor=none;" vertex="1" parent="1">
          <mxGeometry x="763" y="414" width="70" height="30" as="geometry" />
        </mxCell>
        <mxCell id="UD3QibeRNPxxmpjYGRvA-133" value="Prefix" style="text;html=1;align=center;verticalAlign=middle;resizable=0;points=[];autosize=1;strokeColor=none;fillColor=none;" vertex="1" parent="1">
          <mxGeometry x="750" y="436" width="50" height="30" as="geometry" />
        </mxCell>
        <mxCell id="UD3QibeRNPxxmpjYGRvA-134" style="edgeStyle=orthogonalEdgeStyle;rounded=0;orthogonalLoop=1;jettySize=auto;html=1;exitX=1;exitY=1;exitDx=0;exitDy=0;entryX=0;entryY=0;entryDx=0;entryDy=0;curved=1;endArrow=none;startFill=0;" edge="1" parent="1" source="UD3QibeRNPxxmpjYGRvA-135" target="UD3QibeRNPxxmpjYGRvA-109">
          <mxGeometry relative="1" as="geometry">
            <mxPoint x="893" y="632" as="targetPoint" />
            <Array as="points">
              <mxPoint x="813" y="494" />
              <mxPoint x="813" y="634" />
            </Array>
          </mxGeometry>
        </mxCell>
        <mxCell id="UD3QibeRNPxxmpjYGRvA-135" value="" style="ellipse;whiteSpace=wrap;html=1;aspect=fixed;fillColor=#FFFFFF;" vertex="1" parent="1">
          <mxGeometry x="786" y="482" width="14" height="14" as="geometry" />
        </mxCell>
        <mxCell id="UD3QibeRNPxxmpjYGRvA-136" value="Suffix" style="text;html=1;align=center;verticalAlign=middle;resizable=0;points=[];autosize=1;strokeColor=none;fillColor=none;" vertex="1" parent="1">
          <mxGeometry x="744" y="466" width="50" height="30" as="geometry" />
        </mxCell>
        <mxCell id="UD3QibeRNPxxmpjYGRvA-137" value="" style="ellipse;whiteSpace=wrap;html=1;aspect=fixed;fillColor=#FFFFFF;" vertex="1" parent="1">
          <mxGeometry x="1133" y="532" width="14" height="14" as="geometry" />
        </mxCell>
        <mxCell id="UD3QibeRNPxxmpjYGRvA-138" value="" style="ellipse;whiteSpace=wrap;html=1;aspect=fixed;fillColor=#FFFFFF;" vertex="1" parent="1">
          <mxGeometry x="1163" y="572" width="14" height="14" as="geometry" />
        </mxCell>
        <mxCell id="UD3QibeRNPxxmpjYGRvA-139" value="" style="ellipse;whiteSpace=wrap;html=1;aspect=fixed;fillColor=#FFFFFF;" vertex="1" parent="1">
          <mxGeometry x="1163" y="618" width="14" height="14" as="geometry" />
        </mxCell>
        <mxCell id="UD3QibeRNPxxmpjYGRvA-140" value="" style="ellipse;whiteSpace=wrap;html=1;aspect=fixed;fillColor=#FFFFFF;" vertex="1" parent="1">
          <mxGeometry x="1125" y="646" width="14" height="14" as="geometry" />
        </mxCell>
        <mxCell id="UD3QibeRNPxxmpjYGRvA-141" value="Maiden" style="text;html=1;align=center;verticalAlign=middle;resizable=0;points=[];autosize=1;strokeColor=none;fillColor=none;" vertex="1" parent="1">
          <mxGeometry x="1123" y="506" width="60" height="30" as="geometry" />
        </mxCell>
        <mxCell id="UD3QibeRNPxxmpjYGRvA-142" value="Marital" style="text;html=1;align=center;verticalAlign=middle;resizable=0;points=[];autosize=1;strokeColor=none;fillColor=none;" vertex="1" parent="1">
          <mxGeometry x="1167" y="556" width="60" height="30" as="geometry" />
        </mxCell>
        <mxCell id="UD3QibeRNPxxmpjYGRvA-143" value="Birthplace" style="text;html=1;align=center;verticalAlign=middle;resizable=0;points=[];autosize=1;strokeColor=none;fillColor=none;" vertex="1" parent="1">
          <mxGeometry x="1133" y="593" width="80" height="30" as="geometry" />
        </mxCell>
        <mxCell id="UD3QibeRNPxxmpjYGRvA-144" value="Address" style="text;html=1;align=center;verticalAlign=middle;resizable=0;points=[];autosize=1;strokeColor=none;fillColor=none;" vertex="1" parent="1">
          <mxGeometry x="1130" y="638" width="70" height="30" as="geometry" />
        </mxCell>
        <mxCell id="UD3QibeRNPxxmpjYGRvA-145" value="Zip_Code" style="text;html=1;align=center;verticalAlign=middle;resizable=0;points=[];autosize=1;strokeColor=none;fillColor=none;" vertex="1" parent="1">
          <mxGeometry x="794" y="722" width="80" height="30" as="geometry" />
        </mxCell>
        <mxCell id="UD3QibeRNPxxmpjYGRvA-146" value="Lat" style="text;html=1;align=center;verticalAlign=middle;resizable=0;points=[];autosize=1;strokeColor=none;fillColor=none;" vertex="1" parent="1">
          <mxGeometry x="854" y="722" width="40" height="30" as="geometry" />
        </mxCell>
        <mxCell id="UD3QibeRNPxxmpjYGRvA-147" value="" style="ellipse;whiteSpace=wrap;html=1;aspect=fixed;fillColor=#FFFFFF;" vertex="1" parent="1">
          <mxGeometry x="825" y="712" width="14" height="14" as="geometry" />
        </mxCell>
        <mxCell id="UD3QibeRNPxxmpjYGRvA-148" value="" style="ellipse;whiteSpace=wrap;html=1;aspect=fixed;fillColor=#FFFFFF;" vertex="1" parent="1">
          <mxGeometry x="866" y="712" width="14" height="14" as="geometry" />
        </mxCell>
        <mxCell id="UD3QibeRNPxxmpjYGRvA-149" value="Lon" style="text;html=1;align=center;verticalAlign=middle;resizable=0;points=[];autosize=1;strokeColor=none;fillColor=none;" vertex="1" parent="1">
          <mxGeometry x="887" y="722" width="40" height="30" as="geometry" />
        </mxCell>
        <mxCell id="UD3QibeRNPxxmpjYGRvA-150" value="" style="ellipse;whiteSpace=wrap;html=1;aspect=fixed;fillColor=#FFFFFF;" vertex="1" parent="1">
          <mxGeometry x="903" y="712" width="14" height="14" as="geometry" />
        </mxCell>
        <mxCell id="UD3QibeRNPxxmpjYGRvA-151" value="" style="ellipse;whiteSpace=wrap;html=1;aspect=fixed;fillColor=#FFFFFF;" vertex="1" parent="1">
          <mxGeometry x="927" y="756" width="14" height="14" as="geometry" />
        </mxCell>
        <mxCell id="UD3QibeRNPxxmpjYGRvA-152" value="" style="ellipse;whiteSpace=wrap;html=1;aspect=fixed;fillColor=#FFFFFF;" vertex="1" parent="1">
          <mxGeometry x="959" y="778" width="14" height="14" as="geometry" />
        </mxCell>
        <mxCell id="UD3QibeRNPxxmpjYGRvA-153" value="Healthcare_expenses" style="text;html=1;align=center;verticalAlign=middle;resizable=0;points=[];autosize=1;strokeColor=none;fillColor=none;" vertex="1" parent="1">
          <mxGeometry x="798" y="748" width="140" height="30" as="geometry" />
        </mxCell>
        <mxCell id="UD3QibeRNPxxmpjYGRvA-154" value="Healthcare_coverage" style="text;html=1;align=center;verticalAlign=middle;resizable=0;points=[];autosize=1;strokeColor=none;fillColor=none;" vertex="1" parent="1">
          <mxGeometry x="827" y="770" width="140" height="30" as="geometry" />
        </mxCell>
        <mxCell id="UD3QibeRNPxxmpjYGRvA-155" style="edgeStyle=orthogonalEdgeStyle;rounded=0;orthogonalLoop=1;jettySize=auto;html=1;exitX=1;exitY=0.5;exitDx=0;exitDy=0;entryX=0;entryY=0.5;entryDx=0;entryDy=0;endArrow=none;startFill=0;" edge="1" parent="1" source="UD3QibeRNPxxmpjYGRvA-156" target="UD3QibeRNPxxmpjYGRvA-157">
          <mxGeometry relative="1" as="geometry" />
        </mxCell>
        <mxCell id="UD3QibeRNPxxmpjYGRvA-156" value="" style="ellipse;whiteSpace=wrap;html=1;aspect=fixed;fillColor=#FFFFFF;" vertex="1" parent="1">
          <mxGeometry x="1143" y="692" width="14" height="14" as="geometry" />
        </mxCell>
        <mxCell id="UD3QibeRNPxxmpjYGRvA-157" value="" style="ellipse;whiteSpace=wrap;html=1;aspect=fixed;fillColor=#FFFFFF;" vertex="1" parent="1">
          <mxGeometry x="1213" y="692" width="14" height="14" as="geometry" />
        </mxCell>
        <mxCell id="UD3QibeRNPxxmpjYGRvA-158" style="edgeStyle=orthogonalEdgeStyle;rounded=0;orthogonalLoop=1;jettySize=auto;html=1;exitX=1;exitY=0.5;exitDx=0;exitDy=0;entryX=0;entryY=0.5;entryDx=0;entryDy=0;endArrow=none;startFill=0;" edge="1" parent="1" source="UD3QibeRNPxxmpjYGRvA-159" target="UD3QibeRNPxxmpjYGRvA-160">
          <mxGeometry relative="1" as="geometry" />
        </mxCell>
        <mxCell id="UD3QibeRNPxxmpjYGRvA-159" value="" style="ellipse;whiteSpace=wrap;html=1;aspect=fixed;fillColor=#FFFFFF;" vertex="1" parent="1">
          <mxGeometry x="1143" y="742" width="14" height="14" as="geometry" />
        </mxCell>
        <mxCell id="UD3QibeRNPxxmpjYGRvA-160" value="" style="ellipse;whiteSpace=wrap;html=1;aspect=fixed;fillColor=#FFFFFF;" vertex="1" parent="1">
          <mxGeometry x="1213" y="742" width="14" height="14" as="geometry" />
        </mxCell>
        <mxCell id="UD3QibeRNPxxmpjYGRvA-161" value="Id_Race" style="text;html=1;align=center;verticalAlign=middle;resizable=0;points=[];autosize=1;strokeColor=none;fillColor=none;" vertex="1" parent="1">
          <mxGeometry x="1120" y="668" width="70" height="30" as="geometry" />
        </mxCell>
        <mxCell id="UD3QibeRNPxxmpjYGRvA-162" value="Name" style="text;html=1;align=center;verticalAlign=middle;resizable=0;points=[];autosize=1;strokeColor=none;fillColor=none;" vertex="1" parent="1">
          <mxGeometry x="1195" y="668" width="60" height="30" as="geometry" />
        </mxCell>
        <mxCell id="UD3QibeRNPxxmpjYGRvA-163" value="Id_Ethnicity" style="text;html=1;align=center;verticalAlign=middle;resizable=0;points=[];autosize=1;strokeColor=none;fillColor=none;" vertex="1" parent="1">
          <mxGeometry x="1108" y="710" width="90" height="30" as="geometry" />
        </mxCell>
        <mxCell id="UD3QibeRNPxxmpjYGRvA-164" value="Name" style="text;html=1;align=center;verticalAlign=middle;resizable=0;points=[];autosize=1;strokeColor=none;fillColor=none;" vertex="1" parent="1">
          <mxGeometry x="1195" y="710" width="60" height="30" as="geometry" />
        </mxCell>
        <mxCell id="UD3QibeRNPxxmpjYGRvA-165" style="edgeStyle=orthogonalEdgeStyle;rounded=0;orthogonalLoop=1;jettySize=auto;html=1;exitX=1;exitY=0.5;exitDx=0;exitDy=0;endArrow=none;startFill=0;" edge="1" parent="1" source="UD3QibeRNPxxmpjYGRvA-166" target="UD3QibeRNPxxmpjYGRvA-16">
          <mxGeometry relative="1" as="geometry" />
        </mxCell>
        <mxCell id="UD3QibeRNPxxmpjYGRvA-166" value="" style="ellipse;whiteSpace=wrap;html=1;aspect=fixed;fillColor=#F2FF3D;" vertex="1" parent="1">
          <mxGeometry x="617" y="866" width="14" height="14" as="geometry" />
        </mxCell>
        <mxCell id="UD3QibeRNPxxmpjYGRvA-167" value="&lt;div style=&quot;&quot;&gt;&lt;span style=&quot;background-color: transparent; color: light-dark(rgb(0, 0, 0), rgb(255, 255, 255));&quot;&gt;Id_Encounter&lt;/span&gt;&lt;/div&gt;&lt;div style=&quot;&quot;&gt;+&lt;/div&gt;&lt;div style=&quot;&quot;&gt;Id_Organization&lt;/div&gt;&lt;div&gt;&lt;br&gt;&lt;/div&gt;" style="text;html=1;align=center;verticalAlign=middle;resizable=0;points=[];autosize=1;strokeColor=none;fillColor=none;" vertex="1" parent="1">
          <mxGeometry x="569" y="886" width="110" height="70" as="geometry" />
        </mxCell>
        <mxCell id="UD3QibeRNPxxmpjYGRvA-181" style="edgeStyle=orthogonalEdgeStyle;rounded=0;orthogonalLoop=1;jettySize=auto;html=1;exitX=0.5;exitY=0;exitDx=0;exitDy=0;entryX=0;entryY=1;entryDx=0;entryDy=0;endArrow=none;startFill=0;curved=1;" edge="1" parent="1" source="UD3QibeRNPxxmpjYGRvA-168" target="UD3QibeRNPxxmpjYGRvA-6">
          <mxGeometry relative="1" as="geometry" />
        </mxCell>
        <mxCell id="UD3QibeRNPxxmpjYGRvA-168" value="" style="ellipse;whiteSpace=wrap;html=1;aspect=fixed;fillColor=#FFFFFF;" vertex="1" parent="1">
          <mxGeometry x="437" y="956" width="16" height="16" as="geometry" />
        </mxCell>
        <mxCell id="UD3QibeRNPxxmpjYGRvA-169" value="Stop" style="text;html=1;align=center;verticalAlign=middle;resizable=0;points=[];autosize=1;strokeColor=none;fillColor=none;" vertex="1" parent="1">
          <mxGeometry x="417" y="972" width="50" height="30" as="geometry" />
        </mxCell>
        <mxCell id="UD3QibeRNPxxmpjYGRvA-170" value="" style="ellipse;whiteSpace=wrap;html=1;aspect=fixed;fillColor=#FFFFFF;" vertex="1" parent="1">
          <mxGeometry x="316" y="956" width="16" height="16" as="geometry" />
        </mxCell>
        <mxCell id="UD3QibeRNPxxmpjYGRvA-171" value="Start" style="text;html=1;align=center;verticalAlign=middle;resizable=0;points=[];autosize=1;strokeColor=none;fillColor=none;" vertex="1" parent="1">
          <mxGeometry x="300" y="964" width="50" height="30" as="geometry" />
        </mxCell>
        <mxCell id="UD3QibeRNPxxmpjYGRvA-178" style="edgeStyle=orthogonalEdgeStyle;rounded=0;orthogonalLoop=1;jettySize=auto;html=1;exitX=1;exitY=0.5;exitDx=0;exitDy=0;entryX=0;entryY=0;entryDx=0;entryDy=0;curved=1;endArrow=none;startFill=0;" edge="1" parent="1" source="UD3QibeRNPxxmpjYGRvA-172" target="UD3QibeRNPxxmpjYGRvA-6">
          <mxGeometry relative="1" as="geometry" />
        </mxCell>
        <mxCell id="UD3QibeRNPxxmpjYGRvA-172" value="" style="ellipse;whiteSpace=wrap;html=1;aspect=fixed;fillColor=#FFFFFF;" vertex="1" parent="1">
          <mxGeometry x="270" y="832" width="16" height="16" as="geometry" />
        </mxCell>
        <mxCell id="UD3QibeRNPxxmpjYGRvA-179" style="edgeStyle=orthogonalEdgeStyle;rounded=0;orthogonalLoop=1;jettySize=auto;html=1;exitX=1;exitY=0.5;exitDx=0;exitDy=0;entryX=0;entryY=0.5;entryDx=0;entryDy=0;curved=1;endArrow=none;startFill=0;" edge="1" parent="1" source="UD3QibeRNPxxmpjYGRvA-173" target="UD3QibeRNPxxmpjYGRvA-6">
          <mxGeometry relative="1" as="geometry" />
        </mxCell>
        <mxCell id="UD3QibeRNPxxmpjYGRvA-173" value="" style="ellipse;whiteSpace=wrap;html=1;aspect=fixed;fillColor=#FFFFFF;" vertex="1" parent="1">
          <mxGeometry x="270" y="901" width="16" height="16" as="geometry" />
        </mxCell>
        <mxCell id="UD3QibeRNPxxmpjYGRvA-174" value="Payer_Coverage" style="text;html=1;align=center;verticalAlign=middle;resizable=0;points=[];autosize=1;strokeColor=none;fillColor=none;" vertex="1" parent="1">
          <mxGeometry x="190" y="872" width="110" height="30" as="geometry" />
        </mxCell>
        <mxCell id="UD3QibeRNPxxmpjYGRvA-175" value="&lt;p style=&quot;margin: 0px; font-variant-numeric: normal; font-variant-east-asian: normal; font-variant-alternates: normal; font-size-adjust: none; font-kerning: auto; font-optical-sizing: auto; font-feature-settings: normal; font-variation-settings: normal; font-variant-position: normal; font-variant-emoji: normal; font-stretch: normal; line-height: normal; text-align: start; text-wrap-mode: wrap;&quot; class=&quot;p1&quot;&gt;Total_Claim_Cost&lt;/p&gt;" style="text;html=1;align=center;verticalAlign=middle;resizable=0;points=[];autosize=1;strokeColor=none;fillColor=none;" vertex="1" parent="1">
          <mxGeometry x="200" y="800" width="120" height="30" as="geometry" />
        </mxCell>
        <mxCell id="UD3QibeRNPxxmpjYGRvA-180" style="edgeStyle=orthogonalEdgeStyle;rounded=0;orthogonalLoop=1;jettySize=auto;html=1;exitX=1;exitY=0.5;exitDx=0;exitDy=0;entryX=0.066;entryY=0.762;entryDx=0;entryDy=0;entryPerimeter=0;endArrow=none;startFill=0;curved=1;" edge="1" parent="1" source="UD3QibeRNPxxmpjYGRvA-170" target="UD3QibeRNPxxmpjYGRvA-6">
          <mxGeometry relative="1" as="geometry" />
        </mxCell>
      </root>
    </mxGraphModel>
  </diagram>
</mxfile>
